<svg width="910" height="580" viewBox="0 0 910 580" fill="none" xmlns="http://www.w3.org/2000/svg">
<path d="M162.809 40.933C158.311 35.253 155.044 28.774 152.69 22.078C149.726 13.649 153.288 6.12698 160.249 2.48098C167.169 -1.14302 175.706 0.832999 180.749 7.359C182.014 8.995 183.016 10.859 183.974 12.704C188.571 21.555 193.105 30.44 197.678 39.303C198.634 41.157 199.609 43.005 200.677 44.795C201.258 45.769 202.216 45.753 202.995 45.035C205.04 43.149 206.975 41.141 209.041 39.279C213.726 35.056 219.087 33.67 225.147 35.768C231.437 37.945 235.049 42.455 236.102 48.95C236.938 54.107 235.269 58.594 231.734 62.338C229.187 65.036 226.447 67.551 223.811 70.166C221.176 72.782 218.581 75.439 215.934 78.042C214.695 79.26 214.083 80.654 214.26 82.405C214.889 88.637 215.433 94.879 216.166 101.099C216.322 102.424 217.049 103.717 217.667 104.947C231.817 133.139 245.988 161.32 260.158 189.501C260.575 190.33 260.982 191.167 261.459 191.962C262.286 193.341 263.163 194.689 264.019 196.05C266.121 195.412 266.194 193.27 267.09 191.782C274.117 180.099 284.249 173.873 298.027 173.922C298.491 173.924 298.957 173.906 299.419 173.934C303.823 174.202 304.45 174.178 305.537 169.506C307.217 162.281 309.53 155.219 312.228 148.292C317.565 134.591 324.56 121.815 333.396 110.055C333.953 109.313 334.536 108.589 335.08 107.838C337.167 104.956 337.12 104.728 334.085 103.536C329.987 101.927 325.87 100.367 321.782 98.733C320.494 98.218 319.182 97.667 318.053 96.884C317.085 96.213 316.435 95.098 317.22 93.884C318.098 92.527 319.065 91.214 320.114 89.984C345.36 60.384 376.808 40.937 415.019 33.219C464.291 23.268 509.454 33.296 550.182 62.744C565.741 73.994 578.942 87.692 589.468 103.762C599.514 119.099 609.06 134.774 615.055 152.257C617.234 158.61 618.943 165.123 620.876 171.56C621.805 174.655 621.816 174.682 625.233 174.485C637.123 173.802 647.061 177.797 654.897 186.833C657.041 189.306 658.646 192.128 660.088 195.049C660.372 195.625 660.623 196.48 661.38 196.26C661.955 196.092 662.543 195.475 662.834 194.908C666.016 188.72 669.156 182.511 672.277 176.292C683.928 153.074 695.546 129.839 707.236 106.641C708.717 103.703 709.859 100.734 710.168 97.441C710.603 92.822 711.038 88.2 711.641 83.602C711.978 81.033 711.062 79.211 709.264 77.465C704.27 72.615 699.411 67.626 694.471 62.719C691.18 59.45 689.368 55.591 689.521 50.893C689.738 44.233 692.914 39.385 698.818 36.5C704.798 33.578 710.586 34.343 715.776 38.469C718.128 40.339 720.156 42.613 722.381 44.649C723.753 45.904 724.741 45.744 725.637 44.02C730.775 34.143 735.878 24.247 740.963 14.342C742.34 11.659 743.566 8.89498 745.571 6.58898C749.728 1.80598 754.943 -0.0559962 761.169 1.045C770.088 2.623 775.898 11.486 773.675 20.264C773.112 22.488 772.161 24.647 771.14 26.713C769.085 30.87 766.838 34.932 764.722 39.06C764.33 39.825 763.4 40.895 764.158 41.517C765.348 42.494 766.154 41.045 766.919 40.38C774.804 33.533 782.647 26.638 790.506 19.761C792.078 18.386 793.673 17.036 795.25 15.668C801.094 10.597 811.115 11.018 816.826 16.836C821.418 21.515 824.567 30.677 817.582 38.903C816.983 39.609 816.277 40.223 815.68 40.93C815.399 41.263 814.99 41.837 815.105 42.091C815.522 43.013 816.252 42.5 816.84 42.226C819.991 40.756 823.08 39.143 826.283 37.8C832.463 35.209 838.172 36.39 843.153 40.649C848.222 44.983 849.632 50.668 848.214 57.047C847.134 61.906 843.986 65.213 839.638 67.414C835.708 69.403 831.727 71.292 827.777 73.242C826.116 74.062 824.459 74.896 822.84 75.794C822.473 75.997 822.075 76.471 822.03 76.86C821.927 77.741 822.76 77.727 823.339 77.936C824.642 78.406 826.002 78.771 827.226 79.398C834.145 82.946 837.455 90.391 835.668 98.218C834.161 104.817 828.422 109.54 821.029 109.924C810.602 110.466 800.165 110.823 789.732 111.241C786.486 111.371 783.236 111.545 779.99 111.505C776.924 111.467 774.854 112.669 773.04 115.215C767.521 122.963 762.258 130.783 757.98 139.363C726.929 201.635 695.659 263.797 664.446 325.988C652.585 349.62 640.77 373.275 628.786 396.844C620.853 412.445 616.83 428.869 616.869 446.402C616.947 481.678 616.785 516.955 616.752 552.231C616.744 560.72 616.118 559.969 624.739 559.986C639.128 560.015 653.518 560.002 667.908 559.984C669.756 559.982 671.609 559.902 673.451 559.753C674.348 559.68 674.586 558.676 674.253 558.224C670.067 552.519 670.661 545.936 670.661 539.452C670.663 491.178 670.662 442.903 670.665 394.629C670.665 392.541 670.59 390.444 670.742 388.365C671.403 379.361 677.839 373.081 686.358 372.601C688.441 372.484 690.532 372.462 692.62 372.462C736.717 372.455 780.814 372.449 824.911 372.475C827.688 372.477 830.468 372.692 833.24 372.889C839.084 373.304 846.184 379.154 846.827 387.528C846.951 389.145 846.914 390.775 846.914 392.399C846.918 442.994 846.884 493.59 846.967 544.185C846.976 549.709 846.254 554.809 842.447 559.08C841.727 559.888 841.652 560.72 842.557 561.434C846.192 564.302 847.508 567.974 846.644 572.53C846.373 573.962 847.417 574.578 848.732 574.619C850.587 574.678 852.444 574.688 854.3 574.689C870.314 574.694 886.328 574.676 902.342 574.712C904.409 574.717 906.481 574.937 908.538 575.176C909.305 575.265 909.669 576.087 909.569 576.737C909.476 577.337 909.068 578.054 908.574 578.394C907.143 579.378 905.437 579.009 903.841 579.01C883.185 579.024 862.529 579.01 841.873 578.992C839.321 578.99 836.768 578.898 834.216 578.898C763.429 578.892 692.642 578.866 621.855 578.905C585.652 578.925 549.45 579.135 513.247 579.133C349.625 579.123 186.003 579.068 22.381 579.022C20.063 579.021 17.741 578.996 15.429 578.854C14.161 578.776 13.21 577.983 13.236 576.657C13.265 575.177 14.561 574.886 15.704 574.805C17.553 574.674 19.414 574.697 21.27 574.696C36.124 574.689 50.977 574.694 65.831 574.689C67.687 574.688 69.548 574.722 71.399 574.619C73.474 574.504 74.169 573.78 74.255 571.52C74.361 568.739 74.293 565.951 74.338 563.167C74.36 561.779 74.405 560.386 74.549 559.007C74.687 557.682 75.612 556.909 76.844 556.788C78.686 556.607 80.549 556.601 82.404 556.597C91.223 556.58 100.043 556.596 108.862 556.582C110.484 556.579 112.108 556.529 113.727 556.428C115.108 556.342 115.785 555.413 115.854 554.147C115.98 551.831 115.908 549.504 116.052 547.191C116.177 545.18 116.989 544.489 119.122 544.123C120.891 543.82 123.008 544.702 124.37 543.049C125.824 541.285 125.149 539.03 125.151 536.998C125.186 492.669 125.191 448.34 125.134 404.011C125.132 402.072 126.193 399.366 123.874 398.388C122.188 397.677 120.565 399.665 119.026 400.641C91.41 418.17 63.807 435.719 36.202 453.264C35.223 453.886 34.261 454.535 33.274 455.144C31.949 455.961 31.391 457.026 31.765 458.634C32.079 459.98 32.276 461.38 32.312 462.761C32.504 470.077 27.856 476.53 21.015 478.55C14.12 480.586 6.59303 477.7 2.86103 471.591C-1.00097 465.269 -0.23997 457.635 4.78403 452.299C9.73003 447.045 17.489 445.761 23.93 449.136C24.34 449.351 24.821 449.529 25.11 449.863C27.95 453.14 30.514 451.703 33.493 449.804C85.527 416.635 137.615 383.55 189.684 350.436C194.909 347.113 194.853 347.601 192.566 341.799C183.034 317.622 196.685 291.214 221.432 284.684C226.661 283.304 231.98 283.28 237.33 283.635C239.033 283.748 239.541 283.064 238.927 281.608C238.297 280.114 237.599 278.646 236.871 277.196C212.833 229.311 188.748 181.45 164.787 133.526C161.221 126.393 156.125 120.377 151.639 113.91C150.652 112.487 149.306 111.718 147.544 111.663C145.225 111.59 142.908 111.453 140.59 111.362C128.997 110.907 117.402 110.503 105.812 109.991C97.23 109.612 91.34 104.851 89.801 97.24C88.247 89.554 92.376 82.023 100.014 78.681C101.276 78.129 102.599 77.718 103.893 77.241C103.426 75.33 101.622 75.084 100.235 74.378C95.276 71.856 90.216 69.525 85.322 66.884C79.461 63.721 76.658 58.632 77.054 51.981C77.431 45.665 80.646 41.079 86.245 38.209C90.902 35.822 95.649 35.984 100.348 38.105C103.305 39.44 106.199 40.911 109.143 42.276C109.507 42.445 110.17 42.529 110.4 42.323C111.149 41.65 110.33 41.099 109.958 40.766C105.674 36.927 103.769 32.195 104.395 26.46C105.689 14.607 119.027 8.16599 129.046 14.608C130.596 15.604 131.964 16.896 133.361 18.115C140.88 24.676 148.374 31.266 155.895 37.824C157.289 39.04 158.722 40.222 160.222 41.301C161.106 41.937 161.965 41.289 162.769 40.861C162.875 40.831 162.318 41.209 162.809 40.933Z" fill="#151D38"/>
<path d="M606.965 303.049C609.366 303.532 609.429 301.341 610.054 300.107C618.216 283.993 626.318 267.849 634.354 251.672C635.569 249.227 637.341 246.994 637.631 244.137C635.046 242.537 632.364 244.2 629.737 243.914C629.051 243.839 628.347 243.892 627.653 243.931C624.234 244.121 623.986 244.309 622.88 247.754C622.385 249.297 621.961 250.862 621.508 252.418C617.426 266.421 613.324 280.417 609.282 294.432C608.451 297.315 607.848 300.265 607.168 303.205C606.965 303.576 606.745 303.94 606.578 304.327C606.557 304.375 606.901 304.659 606.927 304.639C607.585 304.135 607.453 303.593 606.965 303.049Z" fill="white"/>
<path d="M319.268 306.89C318.896 306.455 319.265 306.265 319.342 306.576C319.561 307.46 319.756 306.321 318.989 306.844C319.086 304.516 318.753 302.29 318.095 300.017C313.134 282.882 308.37 265.69 303.356 248.57C302.021 244.011 303.085 243.046 296.333 243.173C293.814 243.22 291.287 242.548 288.753 242.322C288.147 242.268 287.355 242.601 287.602 243.546C287.775 244.208 288.021 244.865 288.329 245.477C298.643 265.955 308.969 286.427 319.268 306.89Z" fill="white"/>
<path d="M267.382 208.095C266.542 223.66 280.09 239.831 298.958 238.581C304.976 238.182 305.261 239.192 306.598 243.932C306.661 244.155 306.699 244.385 306.763 244.608C319.23 288.065 331.7 331.521 344.168 374.978C352.033 402.39 359.942 429.79 367.694 457.235C368.579 460.369 370.101 462.505 372.84 464.216C385.896 472.37 399.726 478.76 414.456 483.258C417.205 484.097 418.897 483.873 421.072 481.577C426.686 475.65 432.729 474.74 440.047 478.076C442.359 479.13 444.533 480.502 446.711 481.824C448.18 482.716 449.46 483.174 451.169 482.161C455.284 479.721 459.596 479.622 463.722 482.082C465.649 483.231 467.096 482.9 468.809 481.786C471.528 480.019 474.371 478.483 477.423 477.293C482.68 475.243 487.431 476.252 491.935 479.267C493.691 480.443 495.188 481.946 496.162 483.818C497.377 486.153 499.286 486.412 501.455 485.787C507.241 484.119 513.057 482.525 518.759 480.599C530.676 476.573 541.824 470.923 552.493 464.274C554.802 462.835 556.437 461.122 557 458.441C557.19 457.534 557.445 456.639 557.705 455.748C577.039 389.417 596.376 323.086 615.715 256.757C617.143 251.86 618.585 246.966 620.038 242.076C620.569 240.29 621.785 239.523 623.664 239.501C627.138 239.461 630.69 239.721 634.069 239.096C649.575 236.227 660.751 220.458 658.396 205.173C655.533 186.588 638.955 176.959 624.667 179.085C623.293 179.289 621.908 179.439 620.522 179.532C619.211 179.62 618.295 178.927 617.877 177.733C617.497 176.646 617.331 175.487 617.011 174.377C615.085 167.696 613.325 160.96 611.156 154.359C608.584 146.533 608.431 146.572 600.432 145.081C558.283 137.226 524.084 116.225 497.365 82.82C496.081 81.215 495.263 78.764 493.23 78.326C490.784 77.8 489.241 80.25 487.402 81.519C445.125 110.689 398.928 119.348 348.938 107.928C341.01 106.117 342.201 105.851 337.489 111.998C323.734 129.942 314.726 150.149 309.4 172.059C308.962 173.859 308.532 175.668 307.951 177.425C307.548 178.643 306.517 179.247 305.232 179.085C303.626 178.883 302.047 178.422 300.438 178.285C280.948 176.627 266.914 192.606 267.382 208.095Z" fill="#FCE2D8"/>
<path d="M129.514 468.53C129.514 491.507 129.502 514.483 129.522 537.46C129.527 543.341 129.572 543.341 135.263 544.112C135.492 544.143 135.728 544.129 135.957 544.164C137.593 544.408 138.311 545.48 138.444 547.016C138.524 547.939 138.551 548.871 138.532 549.798C138.384 556.967 139.01 556.591 145.575 556.588C147.2 556.587 148.824 556.588 150.449 556.588C158.572 556.59 166.696 556.542 174.818 556.614C179.728 556.658 180.029 556.998 180.136 561.647C180.205 564.663 180.105 567.683 180.189 570.698C180.281 573.995 180.738 574.45 183.685 574.65C184.148 574.681 184.613 574.683 185.077 574.683C194.361 574.685 203.644 574.688 212.928 574.68C213.621 574.679 214.327 574.664 215.002 574.532C215.847 574.367 216.064 573.735 215.727 573.007C215.544 572.613 215.175 572.286 214.842 571.983C203.428 561.635 200.626 547.994 200.213 533.484C200.135 530.746 201.175 529.912 204.054 529.677C204.977 529.601 205.909 529.616 206.837 529.616C226.1 529.613 245.364 529.608 264.627 529.625C266.013 529.626 267.412 529.702 268.781 529.902C269.713 530.039 270.432 530.621 270.768 531.602C271.931 534.993 273.602 536.276 277.493 536.867C282.819 537.676 286.522 540.648 288.068 545.743C289.596 550.778 288.514 555.47 284.488 559.086C280.521 562.649 275.927 563.516 270.917 561.474C269.85 561.039 268.849 560.437 267.839 559.872C266.863 559.326 265.856 559.545 265.402 560.36C262.78 565.065 259.547 569.249 255.509 572.829C254.974 573.303 255.253 574.249 255.978 574.458C256.846 574.709 257.811 574.681 258.734 574.681C273.123 574.692 287.513 574.69 301.902 574.687C302.83 574.687 303.761 574.7 304.686 574.632C307.19 574.448 307.727 573.86 307.873 571.116C307.935 569.959 307.903 568.796 307.906 567.635C307.946 550.925 307.992 534.215 308.022 517.506C308.065 493.602 307.985 469.696 308.168 445.793C308.302 428.277 304.536 411.754 296.638 396.134C288.998 381.024 281.427 365.879 273.821 350.753C273.196 349.511 272.54 348.284 271.885 347.058C271.308 345.977 270.479 345.903 269.772 346.803C268.773 348.072 267.972 349.494 267.021 350.803C251.143 372.686 220.236 374.92 201.371 355.546C200.401 354.55 199.502 353.484 198.591 352.431C197.691 351.391 196.685 351.309 195.555 352.014C194.178 352.872 192.79 353.713 191.42 354.583C172.622 366.524 153.826 378.468 135.03 390.414C134.052 391.036 133.128 391.755 132.109 392.298C130.273 393.278 129.446 394.739 129.52 396.816C129.586 398.67 129.516 400.529 129.516 402.385C129.513 424.433 129.513 446.482 129.514 468.53Z" fill="white"/>
<path d="M842.897 468.288C842.897 443.702 842.899 419.116 842.893 394.531C842.893 392.444 842.982 390.344 842.788 388.273C842.202 382.002 837.978 377.645 831.689 376.779C830.089 376.558 828.452 376.543 826.832 376.543C781.603 376.53 736.375 376.526 691.146 376.548C689.067 376.549 686.945 376.588 684.917 376.984C679.602 378.021 676.313 381.325 675.196 386.613C674.817 388.408 674.788 390.296 674.769 392.143C674.715 397.477 674.748 402.812 674.748 408.147C674.748 452.68 674.743 497.212 674.76 541.745C674.761 544.291 674.695 546.874 675.077 549.376C675.991 555.375 680.295 559.311 686.321 559.871C688.163 560.042 690.028 559.989 691.883 559.99C736.416 559.996 780.949 559.995 825.481 559.991C827.336 559.991 829.199 560.043 831.044 559.892C837.607 559.356 842.183 554.864 842.795 548.305C842.988 546.234 842.892 544.134 842.892 542.047C842.899 517.46 842.897 492.874 842.897 468.288Z" fill="#CED8DC"/>
<path d="M524.412 574.691C540.425 574.691 556.438 574.693 572.452 574.69C577.093 574.689 581.736 574.732 586.376 574.64C589.305 574.583 589.543 574.373 589.43 571.361C589.332 568.738 589.45 566.251 591.123 564.09C593.257 561.332 596.113 560.038 599.57 560.01C602.819 559.983 606.069 560.028 609.315 559.922C611.498 559.851 612.094 559.184 612.239 556.928C612.329 555.54 612.299 554.144 612.305 552.752C612.396 529.315 612.5 505.878 612.568 482.441C612.603 470.373 612.674 458.304 612.552 446.237C612.37 428.241 616.478 411.305 624.622 395.293C629.879 384.957 635.079 374.591 640.282 364.227C674.519 296.034 708.751 227.839 742.977 159.642C743.912 157.779 744.803 155.892 745.649 153.987C746.081 153.015 745.774 152.186 744.817 151.665C743.8 151.112 742.777 150.569 741.743 150.048C729.731 144.002 717.718 137.96 705.702 131.921C704.667 131.401 703.6 130.944 702.573 130.409C701.242 129.715 700.359 130.34 699.728 131.415C699.026 132.613 698.449 133.885 697.826 135.129C687.019 156.693 676.242 178.272 665.373 199.804C663.771 202.978 662.972 206.131 662.909 209.74C662.716 220.82 658.246 230.021 649.358 236.717C646.455 238.904 644.442 241.434 642.855 244.608C628.434 273.442 613.929 302.233 599.502 331.064C598.264 333.538 597.177 336.134 596.401 338.785C584.943 377.952 573.563 417.141 562.115 456.311C561.254 459.258 560.962 462.143 561.257 465.21C562.21 475.139 562.995 485.085 563.827 495.025C564.233 499.88 564.635 504.736 564.967 509.597C565.191 512.873 564.024 513.995 560.967 513.443C558.003 512.908 555.066 512.219 552.113 511.62C535.528 508.256 518.935 504.933 502.363 501.509C498.953 500.805 496.445 501.21 493.771 504.035C488.79 509.299 482.463 509.993 475.863 507.047C473.545 506.012 471.312 504.749 469.152 503.409C467.246 502.226 465.478 501.521 463.46 503.107C462.927 503.526 462.239 503.778 461.588 504.008C460.331 504.452 459.786 505.345 459.758 506.623C459.733 507.783 459.691 508.942 459.691 510.102C459.687 529.596 459.669 549.091 459.7 568.585C459.71 574.61 459.772 574.668 465.929 574.678C485.424 574.708 504.918 574.69 524.412 574.691Z" fill="white"/>
<path d="M312.371 502.111C312.313 502.111 312.254 502.111 312.196 502.111C312.196 524.382 312.177 546.653 312.21 568.924C312.218 574.291 312.335 574.331 317.621 574.468C318.085 574.48 318.549 574.472 319.013 574.473C362.162 574.545 405.312 574.62 448.461 574.681C450.079 574.683 451.703 574.604 453.314 574.453C454.321 574.359 454.994 573.697 455.147 572.676C455.283 571.764 455.363 570.834 455.363 569.912C455.376 549.496 455.351 529.081 455.403 508.665C455.41 506.093 454.78 504.438 452.131 503.308C450 502.399 448.366 502.023 446.382 503.361C444.659 504.524 442.816 505.53 440.954 506.461C434.328 509.773 427.898 509.666 422.203 504.6C420.169 502.791 418.299 502.591 415.866 503.099C403.845 505.614 391.804 508.029 379.769 510.479C375 511.45 370.239 512.464 365.459 513.378C361.918 514.055 360.966 513.143 361.017 509.331C361.026 508.636 361.067 507.939 361.126 507.246C362.191 494.768 363.136 482.278 364.402 469.82C364.809 465.813 364.621 462.039 363.506 458.177C352.004 418.313 340.555 378.434 329.146 338.543C328.375 335.847 327.41 333.271 326.157 330.777C311.373 301.36 296.583 271.946 281.852 242.502C280.579 239.957 278.987 237.913 276.688 236.149C267.889 229.399 263.098 220.47 263.082 209.254C263.078 206.382 262.443 203.825 261.153 201.269C249.765 178.709 238.448 156.113 227.103 133.531C226.687 132.703 226.245 131.883 225.748 131.102C225.181 130.212 224.357 129.967 223.375 130.401C222.528 130.776 221.676 131.145 220.848 131.559C208.821 137.566 196.796 143.576 184.777 149.599C183.535 150.222 182.326 150.914 181.116 151.599C179.869 152.305 179.771 153.397 180.301 154.561C181.069 156.248 181.915 157.901 182.748 159.558C202.93 199.756 223.149 239.935 243.239 280.178C244.988 283.682 247.242 285.935 250.83 287.673C268.644 296.301 277.972 315.108 273.976 334.504C273.196 338.288 273.879 341.202 275.494 344.386C283.775 360.722 291.914 377.131 300.205 393.462C307.887 408.593 312.321 424.525 312.359 441.56C312.406 461.746 312.371 481.929 312.371 502.111Z" fill="white"/>
<path d="M705.176 38.905C700.54 39.355 696.755 41.72 694.653 46.342C692.649 50.751 693.26 54.939 696.382 58.678C697.271 59.743 698.299 60.693 699.281 61.678C703.538 65.949 707.585 70.464 712.132 74.4C715.585 77.389 716.277 80.678 715.612 84.891C714.89 89.464 714.668 94.114 714.117 98.717C713.857 100.885 714.66 102.184 716.604 103.113C720.366 104.911 724.051 106.871 727.778 108.745C737.716 113.741 747.646 118.753 757.608 123.699C760.407 125.089 760.913 124.94 762.814 122.411C765.322 119.075 767.968 115.806 770.105 112.239C772.298 108.577 775.299 107.384 779.356 107.442C784.453 107.516 789.558 107.281 794.656 107.074C803.46 106.716 812.27 106.402 821.061 105.83C827.246 105.428 831.487 101.093 831.962 95.218C832.44 89.294 829.068 83.503 823.545 82.391C817.915 81.257 812.079 80.717 806.566 83.571C802.04 85.914 797.429 88.094 792.839 90.312C791.806 90.811 790.731 91.314 789.62 91.522C789.078 91.623 788.192 91.209 787.847 90.743C787.252 89.94 787.383 88.874 788.271 88.323C790.035 87.227 791.864 86.22 793.729 85.303C807.038 78.76 820.366 72.254 833.681 65.722C835.552 64.804 837.472 63.946 839.218 62.826C843.308 60.202 845.048 56.36 844.542 51.539C844.064 46.985 841.505 43.854 837.544 41.828C833.979 40.004 830.374 40.287 826.836 42.003C822.04 44.329 817.338 46.871 812.443 48.962C802.946 53.02 794.521 58.564 787.214 65.873C784.927 68.161 782.36 70.178 779.842 72.221C778.847 73.028 777.592 73.001 776.759 71.941C776.129 71.139 776.421 70.182 777.15 69.468C778.141 68.496 779.143 67.531 780.183 66.612C789.917 58.014 799.664 49.429 809.398 40.831C810.962 39.45 812.577 38.109 814.004 36.594C818.654 31.656 818.757 25.186 814.358 20.31C810.046 15.53 803.335 14.862 798.063 18.759C796.575 19.859 795.216 21.135 793.821 22.357C782.48 32.288 771.152 42.236 759.795 52.15C758.409 53.36 756.928 54.487 755.372 55.463C754.947 55.73 754.034 55.431 753.444 55.168C752.725 54.848 752.594 54.018 752.825 53.382C753.298 52.081 753.891 50.814 754.532 49.585C758.603 41.773 762.73 33.99 766.771 26.163C767.83 24.112 768.704 21.959 769.569 19.815C770.282 18.048 770.335 16.206 769.834 14.353C768.593 9.76501 765.932 6.467 761.202 5.266C756.242 4.006 751.937 5.33801 748.776 9.37001C747.075 11.539 745.736 14.026 744.456 16.486C739.321 26.356 734.274 36.272 729.189 46.168C728.448 47.611 727.737 49.074 726.905 50.464C726.094 51.817 724.499 52.172 723.328 51.28C722.411 50.581 721.586 49.755 720.75 48.954C718.407 46.707 716.107 44.414 713.738 42.195C711.453 40.051 708.734 38.892 705.176 38.905Z" fill="#FCE2D8"/>
<path d="M111.117 81.609C107.616 81.778 105.497 81.669 103.456 82.019C97.727 83.002 93.3111 88.761 93.6041 94.616C93.8921 100.373 98.2851 105.103 104.083 105.821C105.46 105.992 106.861 105.965 108.252 106.019C121.23 106.525 134.205 107.118 147.187 107.477C150.752 107.576 153.31 108.642 155.289 111.741C157.781 115.643 160.643 119.314 163.42 123.028C164.763 124.824 165.471 124.985 167.557 124.003C170.492 122.622 173.363 121.107 176.265 119.656C186.629 114.472 197.007 109.313 207.355 104.097C212.212 101.649 212.164 101.603 211.53 96.013C211.007 91.406 210.684 86.771 210.007 82.187C209.629 79.624 210.255 77.708 212.103 75.957C215.301 72.926 218.398 69.789 221.526 66.683C223.995 64.232 226.488 61.803 228.895 59.292C233.595 54.39 233.152 46.995 228.422 42.414C223.728 37.868 217.191 37.734 212.063 42.122C210.305 43.626 208.757 45.374 207.101 46.997C200.458 53.506 200.359 53.488 196.233 45.477C191.032 35.378 185.862 25.262 180.594 15.198C179.419 12.953 178.116 10.701 176.483 8.784C173.227 4.962 167.745 3.81602 163.151 5.65302C158.523 7.50302 155.706 12.035 155.849 17.232C155.928 20.126 157.136 22.612 158.425 25.086C162.389 32.693 166.365 40.294 170.333 47.899C171.084 49.338 171.857 50.766 172.554 52.23C173.086 53.349 173.19 54.591 172.075 55.344C171.309 55.861 170.246 55.674 169.465 55.061C168.191 54.061 166.956 53.009 165.737 51.941C154.392 42.01 143.059 32.066 131.71 22.139C130.14 20.766 128.609 19.311 126.882 18.16C121.866 14.819 115.117 15.906 111.187 20.551C107.454 24.963 107.353 31.473 111.078 35.893C112.264 37.301 113.723 38.489 115.111 39.716C124.843 48.32 134.592 56.904 144.328 65.503C145.718 66.731 147.109 67.962 148.425 69.266C149.461 70.293 149.451 71.614 148.579 72.3C147.699 72.993 146.811 72.818 146.029 72.256C144.903 71.448 143.839 70.549 142.795 69.635C138.782 66.119 134.754 62.62 130.799 59.04C128.372 56.843 125.746 55.049 122.762 53.647C115.842 50.394 109.023 46.927 102.148 43.577C100.484 42.766 98.7381 42.125 97.0751 41.314C92.5691 39.115 85.1211 41.935 82.4021 47.465C79.6491 53.064 81.158 59.226 86.409 62.768C87.745 63.669 89.2401 64.344 90.6951 65.058C104.429 71.795 118.171 78.516 131.907 85.247C133.363 85.961 134.826 86.667 136.244 87.452C137.755 88.289 138.524 89.893 137.829 90.753C136.972 91.815 135.852 91.758 134.71 91.202C133.668 90.695 132.628 90.183 131.587 89.673C127.84 87.84 124.052 86.084 120.357 84.15C116.993 82.39 113.559 81.197 111.117 81.609Z" fill="#FCE2D8"/>
<path d="M717.807 574.841C755.385 574.841 792.963 574.841 830.541 574.84C832.397 574.84 834.257 574.898 836.106 574.786C837.242 574.717 838.418 574.525 839.478 574.128C841.526 573.361 842.858 571.264 842.728 569.255C842.598 567.218 841.514 565.747 839.702 564.94C838.673 564.481 837.503 564.198 836.377 564.125C834.298 563.99 832.204 564.057 830.117 564.057C755.425 564.055 680.733 564.056 606.042 564.056C604.186 564.056 602.33 564.032 600.475 564.086C599.556 564.112 598.613 564.181 597.73 564.417C595.264 565.076 593.562 567.116 593.497 569.336C593.425 571.825 595.32 574.194 598.13 574.593C600.41 574.917 602.756 574.832 605.072 574.833C642.651 574.845 680.229 574.841 717.807 574.841Z" fill="#CED8DC"/>
<path d="M235.788 534.089C227.917 534.089 220.047 534.085 212.176 534.093C210.556 534.095 208.933 534.085 207.317 534.183C205.567 534.289 204.686 535.124 204.735 536.71C205.021 545.905 207.345 554.494 212.2 562.389C222.335 578.871 249.354 578.695 259.122 562.048C260.522 559.662 261.688 557.132 262.878 554.629C264.805 550.571 265.656 550.413 268.417 553.711C269.155 554.593 269.8 555.619 270.705 556.284C273.051 558.008 275.633 558.761 278.534 557.629C282.966 555.9 285.357 551.176 283.872 546.974C282.232 542.336 277.43 540.144 272.563 541.775C270.891 542.335 269.571 544.528 267.619 543.483C265.254 542.217 266.617 539.764 266.432 537.812C266.367 537.125 266.327 536.435 266.278 535.747C266.218 534.91 265.544 534.469 264.933 534.389C263.335 534.177 261.709 534.108 260.094 534.103C251.992 534.077 243.89 534.09 235.788 534.089Z" fill="white"/>
<path d="M560.058 503.258C559.366 494.724 558.781 487.327 558.161 479.932C557.87 476.467 557.531 473.005 557.17 469.546C557.034 468.241 555.848 467.605 554.692 468.164C554.067 468.466 553.471 468.833 552.879 469.197C537.146 478.849 520.302 485.812 502.346 490.088C501.671 490.249 500.961 490.35 500.342 490.64C498.818 491.355 498.795 492.803 498.786 494.207C498.778 495.498 499.349 496.423 500.649 496.747C501.547 496.971 502.468 497.101 503.376 497.285C520.18 500.694 536.983 504.102 553.786 507.517C560.357 508.853 560.356 508.86 560.058 503.258Z" fill="white"/>
<path d="M367.036 489.983C367.026 489.982 367.016 489.981 367.006 489.981C366.556 495.295 366.084 500.607 365.668 505.924C365.538 507.585 366.478 508.348 368.293 508.188C368.985 508.127 369.68 508.053 370.36 507.916C384.445 505.095 398.528 502.267 412.609 499.425C413.515 499.242 414.393 498.92 415.288 498.677C416.568 498.33 417.256 497.602 417.004 496.187C416.882 495.503 416.802 494.808 416.763 494.115C416.451 488.569 416.461 488.553 411.56 486.988C398.483 482.812 386.019 477.272 374.22 470.248C373.224 469.655 372.238 469.044 371.222 468.487C370.258 467.958 369.459 468.166 369.074 469.238C368.841 469.886 368.699 470.587 368.638 471.275C368.089 477.509 367.567 483.747 367.036 489.983Z" fill="white"/>
<path d="M222.284 124.883C222.202 124.449 222.212 123.969 222.023 123.588C219.35 118.204 216.679 112.819 213.926 107.477C213.502 106.654 212.599 106.211 211.58 106.681C209.902 107.454 208.215 108.212 206.563 109.04C198.293 113.185 189.981 117.25 181.792 121.549C177.149 123.986 171.979 125.519 168.061 129.253C169.472 134.429 172.572 138.829 174.715 143.669C175.18 144.719 175.803 145.711 176.452 146.662C177.008 147.477 177.85 147.856 178.846 147.525C179.5 147.308 180.131 147.011 180.748 146.701C193.767 140.164 206.783 133.622 219.797 127.075C220.413 126.765 221.054 126.468 221.584 126.042C221.915 125.776 222.057 125.277 222.284 124.883Z" fill="white"/>
<path d="M747.658 147.667C748.185 147.434 748.784 147.369 748.969 147.058C752.259 141.509 755.157 135.756 757.632 129.801C757.795 129.408 757.247 128.468 756.778 128.117C755.865 127.433 754.786 126.963 753.756 126.444C741.801 120.424 729.842 114.41 717.881 108.4C716.851 107.882 715.804 107.397 714.756 106.917C713.196 106.203 712.144 106.727 711.399 108.225C709.036 112.978 706.599 117.695 704.265 122.462C703.055 124.935 703.229 125.664 705.604 126.867C718.987 133.644 732.402 140.355 745.816 147.07C746.416 147.37 747.104 147.492 747.658 147.667Z" fill="white"/>
<path d="M462.561 222.563C453.292 222.036 445.461 218.704 440.052 210.798C437.21 206.645 436.091 202.009 436.22 196.967C436.308 193.517 436.106 193.391 432.839 193.177C420.114 192.344 408.347 188.391 397.197 182.384C395.973 181.725 394.742 181.071 393.565 180.334C392.4 179.604 390.926 178.876 391.157 177.251C391.483 174.954 393.524 175.437 395.029 175.392C406.613 175.042 417.375 171.759 427.607 166.475C431.105 164.669 434.654 162.958 438.205 161.258C445.564 157.736 452.573 158.352 459.198 163.135C459.95 163.678 460.693 164.232 461.443 164.778C462.497 165.544 463.537 165.603 464.591 164.754C465.132 164.318 465.723 163.945 466.277 163.524C473.28 158.208 480.717 157.829 488.499 161.599C491.001 162.811 493.499 164.036 495.949 165.349C507.122 171.337 518.796 175.534 531.675 175.549C532.353 175.55 533.041 175.734 533.706 175.905C534.725 176.167 535.295 178.081 534.498 178.79C533.477 179.698 532.385 180.571 531.203 181.248C519.8 187.783 507.663 192.098 494.49 193.212C493.566 193.29 492.634 193.281 491.712 193.376C490.413 193.509 489.582 194.159 489.554 195.564C489.531 196.723 489.546 197.883 489.505 199.041C489.17 208.592 484.129 215.111 475.996 219.415C471.861 221.604 467.333 222.688 462.561 222.563Z" fill="#151D38"/>
<path d="M481.327 195.534C482.232 195.626 483.142 195.802 484.04 195.757C484.297 195.744 484.558 195.109 484.745 194.723C484.834 194.54 484.828 194.235 484.733 194.053C484.28 193.178 483.509 192.655 482.57 192.489C476.065 191.34 470.196 188.74 464.926 184.783C463.664 183.835 462.5 183.67 461.167 184.662C455.886 188.595 450.036 191.235 443.522 192.374C442.051 192.631 441.032 193.563 440.617 195.029C439.073 200.495 442.273 209.089 447.056 212.358C447.718 212.81 448.417 212.673 448.885 212.139C449.644 211.274 450.266 210.29 450.962 209.367C454.307 204.934 458.432 201.754 464.221 201.511C466.468 201.417 468.125 200.396 469.768 199.02C473.101 196.23 476.927 194.849 481.327 195.534Z" fill="white"/>
<path d="M452.839 214.761C452.787 215.875 453.495 216.498 454.347 216.857C463.412 220.688 475.369 217.572 481.444 209.825C482.887 207.985 484.016 205.967 484.71 203.727C485.193 202.169 484.614 201.038 483.146 200.353C479.02 198.428 475.482 199.664 472.222 202.355C470.037 204.159 468.614 206.566 467.145 208.932C466.614 209.787 465.852 210.242 464.82 210.017C463.751 209.784 463.55 208.951 463.294 208.002C462.778 206.086 462.061 205.729 460.692 206.39C457.451 207.955 455.051 210.406 453.252 213.476C453.027 213.863 452.968 214.346 452.839 214.761Z" fill="#E8384A"/>
<path d="M575.438 161.569C575.313 167.409 570.661 171.981 564.79 172.032C558.76 172.085 553.94 167.079 554.105 160.933C554.262 155.085 558.96 150.461 564.735 150.472C570.84 150.484 575.569 155.387 575.438 161.569Z" fill="#151D38"/>
<path d="M361.076 171.482C355.154 171.402 350.531 166.852 350.463 161.037C350.391 154.935 355.257 150.14 361.445 150.215C367.311 150.287 371.923 154.87 372.011 160.715C372.104 166.891 367.355 171.567 361.076 171.482Z" fill="#151D38"/>
<path d="M647.358 209.444C647.186 213.326 646.035 217.485 643.062 220.968C642.492 221.636 641.702 222.233 640.891 222.535C640.376 222.727 639.584 222.42 639.009 222.143C638.287 221.795 638.154 220.935 638.445 220.354C639.057 219.132 639.929 218.043 640.621 216.857C645.83 207.936 641.645 197.768 631.629 194.999C630.32 194.637 628.942 194.457 627.704 193.937C627.267 193.753 626.896 192.778 626.959 192.217C627.02 191.671 627.594 190.865 628.087 190.741C630.386 190.159 632.653 190.587 634.858 191.374C642.175 193.984 647.204 201.013 647.358 209.444Z" fill="#151D38"/>
<path d="M278.617 208.879C278.696 198.552 286.039 190.566 295.74 189.745C296.589 189.673 297.575 189.964 298.321 190.392C298.784 190.658 299.038 191.479 299.147 192.094C299.205 192.423 298.842 193.061 298.525 193.181C297.247 193.668 295.937 194.176 294.595 194.377C285.678 195.712 279.075 207.097 285.414 216.544C285.671 216.928 285.965 217.289 286.203 217.684C287.321 219.542 287.411 221.529 286.35 221.923C284.76 222.512 283.719 221.511 282.826 220.429C279.917 216.905 278.453 212.863 278.617 208.879Z" fill="#151D38"/>
<path d="M469.042 152.691C468.307 152.389 467.606 152.227 467.049 151.851C463.216 149.262 459.369 146.69 455.621 143.982C453.712 142.603 453.785 140.632 455.791 139.53C460.045 137.192 464.386 135.011 468.706 132.796C469.093 132.597 469.667 132.439 470.027 132.581C470.628 132.819 471.211 133.24 471.645 133.724C472.174 134.312 472.002 135.125 471.542 135.621C469.438 137.894 466.415 138.677 463.849 140.21C461.263 141.755 461.161 142.362 463.376 144.035C465.766 145.839 468.187 147.607 470.489 149.518C470.825 149.797 470.788 150.88 470.539 151.411C470.285 151.954 469.558 152.275 469.042 152.691Z" fill="#151D38"/>
<path d="M218.82 506.349C218.752 501.794 219.876 498.511 221.385 495.373C223.187 491.625 225.188 487.974 227.063 484.26C228 482.404 228.947 480.542 229.714 478.612C231.056 475.239 231.64 471.92 228.505 469.043C228.088 468.66 227.973 467.815 227.961 467.179C227.954 466.808 228.361 466.348 228.698 466.069C229.488 465.415 230.358 465.414 231.217 466.001C234.672 468.362 235.745 471.725 235.089 475.682C234.595 478.663 233.479 481.464 232.075 484.144C230.358 487.421 228.606 490.68 226.946 493.984C226.014 495.839 225.174 497.747 224.397 499.673C222.31 504.842 222.335 509.616 227.15 513.423C227.507 513.705 227.823 514.063 228.081 514.439C228.664 515.287 228.64 516.147 227.98 516.957C227.283 517.813 226.305 517.875 225.487 517.418C221.838 515.381 219.655 512.241 218.931 508.126C218.771 507.222 218.816 506.282 218.82 506.349Z" fill="white"/>
<path d="M230.064 504.014C230.069 502.35 230.993 499.252 232.364 496.309C234.02 492.754 235.873 489.292 237.607 485.773C238.83 483.291 240.064 480.81 241.173 478.276C242.553 475.125 242.913 472.034 240.137 469.319C239.823 469.011 239.486 468.543 239.48 468.145C239.47 467.508 239.577 466.772 239.907 466.249C240.495 465.317 241.495 465.338 242.333 465.848C245.376 467.699 246.657 470.517 246.596 474.01C246.546 476.845 245.627 479.466 244.425 481.967C242.827 485.294 241.028 488.524 239.396 491.835C238.072 494.522 236.766 497.227 235.631 499.998C233.616 504.917 233.854 509.398 238.206 513.197C240.061 514.816 240.171 516.461 239.043 517.219C237.547 518.226 236.397 517.269 235.344 516.432C231.895 513.689 230.014 510.135 230.064 504.014Z" fill="white"/>
<path d="M257.928 474.479C257.957 476.856 256.982 479.482 255.794 481.989C254.109 485.546 252.19 488.99 250.392 492.494C248.806 495.585 247.316 498.698 246.343 502.071C245.21 505.997 245.792 509.384 248.693 512.309C249.182 512.802 249.737 513.233 250.208 513.742C251.062 514.665 251.388 515.713 250.679 516.868C250.021 517.94 248.563 517.864 247.039 516.692C242.604 513.281 240.716 508.796 241.6 503.268C242.19 499.581 243.553 496.125 245.27 492.818C246.978 489.529 248.788 486.292 250.43 482.97C251.453 480.899 252.319 478.742 253.125 476.575C253.987 474.257 253.829 472.031 252.099 470.073C251.644 469.559 251.135 469.012 250.917 468.388C250.596 467.468 250.801 466.454 251.686 465.96C252.189 465.68 253.098 465.628 253.586 465.9C256.727 467.652 258.014 470.472 257.928 474.479Z" fill="white"/>
<path d="M763.122 483.033C754.236 482.982 746.764 475.405 746.837 466.521C746.911 457.588 754.441 450.201 763.388 450.284C772.419 450.368 779.715 457.776 779.643 466.789C779.571 475.751 772.113 483.084 763.122 483.033Z" fill="#151D38"/>
<path d="M483.596 526.572C483.449 530.203 480.324 533.044 476.788 532.76C473.204 532.472 470.586 529.321 470.896 525.669C471.175 522.392 474.112 519.708 477.349 519.772C480.889 519.842 483.743 522.949 483.596 526.572Z" fill="#151D38"/>
<path d="M470.889 554.292C470.736 550.586 473.65 547.441 477.25 547.426C480.524 547.412 483.434 550.245 483.601 553.608C483.786 557.335 480.903 560.421 477.234 560.422C473.854 560.424 471.03 557.696 470.889 554.292Z" fill="#151D38"/>
<path d="M275.703 555.995C272.001 555.927 269.101 553.013 269.214 549.474C269.327 545.922 272.371 542.997 275.903 543.048C279.415 543.099 282.439 546.182 282.412 549.683C282.384 553.272 279.416 556.064 275.703 555.995ZM277.663 549.562C277.367 548.763 277.264 547.829 276.142 547.668C275.167 547.528 273.89 548.541 273.845 549.531C273.799 550.53 274.988 551.471 276.109 551.372C277.237 551.272 277.455 550.438 277.663 549.562Z" fill="#151D38"/>
</svg>
