<svg id="Icons" xmlns="http://www.w3.org/2000/svg" viewBox="0 0 48 48"><defs><style>.cls-6{fill:#45413c}.cls-3{fill:#fff5e3}.cls-4,.cls-5{fill:none;stroke:#45413c;stroke-linecap:round;stroke-linejoin:round}.cls-5{fill:#fff}</style></defs><g id="_Group_" data-name="&lt;Group&gt;"><ellipse id="_Ellipse_" data-name="&lt;Ellipse&gt;" cx="24.82" cy="44.39" rx="19.31" ry="1.61" opacity=".15" fill="#45413c"/><path id="_Path_" data-name="&lt;Path&gt;" d="M44.64 19.54a3.68 3.68 0 00-.79-2.27 10 10 0 01-2-6.23V8.47h-2.29v2.77A2.77 2.77 0 0136.79 14h-1.85a2.78 2.78 0 01-2.77-2.77V8.47h-2.3v14.65a11.19 11.19 0 01-11.19 11.19h-4A9.68 9.68 0 005 43a.93.93 0 00.92 1h20.26a15.69 15.69 0 0015.69-15.69v-4.56a.92.92 0 01.55-.84 3.67 3.67 0 002.22-3.37z" fill="#f7e5c6"/><g id="_Group_2" data-name="&lt;Group&gt;"><path id="_Path_2" data-name="&lt;Path&gt;" class="cls-3" d="M5.62 43.93a9.69 9.69 0 019-6.16h4a11.19 11.19 0 0011.25-11.18v-3.47a11.19 11.19 0 01-11.19 11.19h-4A9.68 9.68 0 005 43a.92.92 0 00.62.93z"/><path id="_Path_3" data-name="&lt;Path&gt;" class="cls-3" d="M30.19 14.2a3.9 3.9 0 012.36 1.89 2.75 2.75 0 002.39 1.38h1.85a2.77 2.77 0 002.66-2 1.24 1.24 0 011.1-.86 1.28 1.28 0 011.38 1.16 9.54 9.54 0 001.92 5 5 5 0 01.35.54 3.73 3.73 0 00.44-1.73 3.68 3.68 0 00-.79-2.27 10 10 0 01-2-6.23V8.47h-2.29v2.77A2.77 2.77 0 0136.79 14h-1.85a2.78 2.78 0 01-2.77-2.77V8.47h-2.3v5.65z"/></g><path id="_Path_4" data-name="&lt;Path&gt;" class="cls-4" d="M44.64 19.54a3.68 3.68 0 00-.79-2.27 10 10 0 01-2-6.23V8.47h-2.29v2.77A2.77 2.77 0 0136.79 14h-1.85a2.78 2.78 0 01-2.77-2.77V8.47h-2.3v14.65a11.19 11.19 0 01-11.19 11.19h-4A9.68 9.68 0 005 43a.93.93 0 00.92 1h20.26a15.69 15.69 0 0015.69-15.69v-4.56a.92.92 0 01.55-.84 3.67 3.67 0 002.22-3.37z"/><path id="_Path_5" data-name="&lt;Path&gt;" class="cls-5" d="M34.85 5.77A3.83 3.83 0 1131 2a3.82 3.82 0 013.85 3.77z"/><path id="_Path_6" data-name="&lt;Path&gt;" class="cls-6" d="M32.18 5.77A1.16 1.16 0 1131 4.62a1.16 1.16 0 011.18 1.15z"/><path id="_Path_7" data-name="&lt;Path&gt;" class="cls-5" d="M44.64 5.77A3.83 3.83 0 1140.81 2a3.84 3.84 0 013.83 3.77z"/><path id="_Path_8" data-name="&lt;Path&gt;" class="cls-6" d="M42 5.77a1.16 1.16 0 11-1.16-1.15A1.16 1.16 0 0142 5.77z"/><path id="_Path_9" data-name="&lt;Path&gt;" d="M21.56 14.47a13.83 13.83 0 00-13.81 13 10.62 10.62 0 1021.2.85h4.11a2.14 2.14 0 002.12-2.51 13.84 13.84 0 00-13.62-11.34z" fill="#dea47a"/><path id="_Path_10" data-name="&lt;Path&gt;" d="M21.56 18.39c6.28 0 9.67 4.19 11.37 9.92h.13a2.14 2.14 0 002.12-2.51 13.85 13.85 0 00-27.46 2.51 11.26 11.26 0 00.17 1.85 13.83 13.83 0 0113.67-11.77z" fill="#f0c2a1"/><path id="_Path_11" data-name="&lt;Path&gt;" class="cls-4" d="M21.56 14.47a13.83 13.83 0 00-13.81 13 10.62 10.62 0 1021.2.85h4.11a2.14 2.14 0 002.12-2.51 13.84 13.84 0 00-13.62-11.34z"/><path id="_Path_12" data-name="&lt;Path&gt;" class="cls-4" d="M19.26 28.31a2.77 2.77 0 115.53 0 5.31 5.31 0 11-10.61 0 7.39 7.39 0 0114.77 0"/></g></svg>
